<svg preserveAspectRatio="none" overflow="visible" style="display: block;" width="16" height="16" viewBox="0 0 16 16" fill="none" xmlns="http://www.w3.org/2000/svg">
<g id="TrendDown">
<path id="Vector" d="M15 8.5V12.5C15 12.6326 14.9473 12.7598 14.8536 12.8536C14.7598 12.9473 14.6326 13 14.5 13H10.5C10.3674 13 10.2402 12.9473 10.1464 12.8536C10.0527 12.7598 10 12.6326 10 12.5C10 12.3674 10.0527 12.2402 10.1464 12.1464C10.2402 12.0527 10.3674 12 10.5 12H13.2931L8.5 7.20687L6.35375 9.35375C6.30731 9.40024 6.25217 9.43712 6.19147 9.46228C6.13077 9.48744 6.06571 9.50039 6 9.50039C5.93429 9.50039 5.86923 9.48744 5.80853 9.46228C5.74783 9.43712 5.69269 9.40024 5.64625 9.35375L1.14625 4.85375C1.05243 4.75993 0.999722 4.63268 0.999722 4.5C0.999722 4.36732 1.05243 4.24007 1.14625 4.14625C1.24007 4.05243 1.36732 3.99972 1.5 3.99972C1.63268 3.99972 1.75993 4.05243 1.85375 4.14625L6 8.29313L8.14625 6.14625C8.19269 6.09976 8.24783 6.06288 8.30853 6.03772C8.36923 6.01256 8.43429 5.99961 8.5 5.99961C8.56571 5.99961 8.63077 6.01256 8.69147 6.03772C8.75217 6.06288 8.80731 6.09976 8.85375 6.14625L14 11.2931V8.5C14 8.36739 14.0527 8.24021 14.1464 8.14645C14.2402 8.05268 14.3674 8 14.5 8C14.6326 8 14.7598 8.05268 14.8536 8.14645C14.9473 8.24021 15 8.36739 15 8.5Z" fill="#5E3E87"/>
</g>
</svg>
